<svg width="137" height="18" viewBox="0 0 137 18" fill="none" xmlns="http://www.w3.org/2000/svg">
<path d="M4.70288 7.15543V3.02063H8.34249C8.68912 3.02063 9.01925 3.05365 9.33286 3.11967C9.66299 3.16919 9.95185 3.26823 10.1994 3.41678C10.447 3.56534 10.6451 3.77166 10.7937 4.03576C10.9422 4.29986 11.0165 4.63824 11.0165 5.05089C11.0165 5.79367 10.7937 6.33012 10.348 6.66025C9.90233 6.99037 9.33286 7.15543 8.63961 7.15543H4.70288ZM0.815674 0V17.6781H9.38238C10.1747 17.6781 10.9422 17.5791 11.685 17.381C12.4443 17.1829 13.1128 16.8776 13.6905 16.4649C14.2847 16.0523 14.7551 15.5241 15.1018 14.8803C15.4484 14.2201 15.6217 13.4443 15.6217 12.553C15.6217 11.447 15.3494 10.5062 14.8047 9.7304C14.2765 8.9381 13.4677 8.38514 12.3783 8.07153C13.1706 7.69188 13.7648 7.20495 14.1609 6.61073C14.5736 6.01651 14.7799 5.27373 14.7799 4.38239C14.7799 3.55708 14.6396 2.86382 14.359 2.30261C14.0949 1.7414 13.7153 1.29574 13.2201 0.965613C12.7249 0.618982 12.1307 0.371389 11.4374 0.222834C10.7441 0.0742779 9.97661 0 9.13479 0H0.815674ZM4.70288 14.6575V9.80468H8.93672C9.77853 9.80468 10.4553 10.0028 10.967 10.3989C11.4787 10.7785 11.7345 11.4223 11.7345 12.3301C11.7345 12.7923 11.652 13.1719 11.4869 13.469C11.3384 13.7662 11.132 14.0055 10.8679 14.1871C10.6038 14.3521 10.2985 14.4759 9.95185 14.5585C9.60522 14.6245 9.24208 14.6575 8.86244 14.6575H4.70288Z" fill="white"/>
<path d="M26.4936 9.90371H20.7742C20.7907 9.65612 20.8402 9.37551 20.9227 9.0619C21.0218 8.74828 21.1786 8.45117 21.3931 8.17056C21.6242 7.88996 21.9213 7.65887 22.2845 7.4773C22.6641 7.27923 23.1345 7.18019 23.6958 7.18019C24.5541 7.18019 25.1896 7.41128 25.6022 7.87345C26.0314 8.33562 26.3285 9.01238 26.4936 9.90371ZM20.7742 12.132H30.0094C30.0754 11.1417 29.9929 10.1926 29.7618 9.28473C29.5307 8.37689 29.1511 7.56809 28.6229 6.85832C28.1112 6.14856 27.4509 5.58735 26.6421 5.17469C25.8333 4.74553 24.8842 4.53095 23.7948 4.53095C22.8209 4.53095 21.9296 4.70426 21.1208 5.05089C20.3285 5.39752 19.6435 5.8762 19.0658 6.48693C18.4881 7.08116 18.0424 7.79092 17.7288 8.61623C17.4152 9.44154 17.2583 10.3329 17.2583 11.2902C17.2583 12.2806 17.4069 13.1884 17.704 14.0138C18.0176 14.8391 18.455 15.5488 19.0163 16.1431C19.5775 16.7373 20.2625 17.1994 21.0713 17.5296C21.8801 17.8432 22.7879 18 23.7948 18C25.2473 18 26.4853 17.6699 27.5087 17.0096C28.5321 16.3494 29.2914 15.2517 29.7865 13.7166H26.6916C26.5761 14.1128 26.2625 14.4924 25.7508 14.8556C25.2391 15.2022 24.6284 15.3755 23.9186 15.3755C22.9282 15.3755 22.1689 15.1197 21.6407 14.608C21.1125 14.0963 20.8237 13.271 20.7742 12.132Z" fill="white"/>
<path d="M36.5512 4.87758V1.03989H33.0354V4.87758H30.9061V7.22971H33.0354V14.7813C33.0354 15.425 33.1427 15.945 33.3573 16.3411C33.5719 16.7373 33.8607 17.0426 34.2239 17.2572C34.6035 17.4718 35.0327 17.6121 35.5113 17.6781C36.0065 17.7607 36.5265 17.8019 37.0712 17.8019C37.4178 17.8019 37.7727 17.7937 38.1358 17.7772C38.499 17.7607 38.8291 17.7276 39.1262 17.6781V14.9546C38.9611 14.9876 38.7878 15.0124 38.6063 15.0289C38.4247 15.0454 38.2349 15.0536 38.0368 15.0536C37.4426 15.0536 37.0464 14.9546 36.8484 14.7565C36.6503 14.5585 36.5512 14.1623 36.5512 13.5681V7.22971H39.1262V4.87758H36.5512Z" fill="white"/>
<path d="M45.2557 4.87758V1.03989H41.7399V4.87758H39.6106V7.22971H41.7399V14.7813C41.7399 15.425 41.8471 15.945 42.0617 16.3411C42.2763 16.7373 42.5652 17.0426 42.9283 17.2572C43.3079 17.4718 43.7371 17.6121 44.2158 17.6781C44.711 17.7607 45.2309 17.8019 45.7756 17.8019C46.1222 17.8019 46.4771 17.7937 46.8403 17.7772C47.2034 17.7607 47.5335 17.7276 47.8306 17.6781V14.9546C47.6656 14.9876 47.4923 15.0124 47.3107 15.0289C47.1291 15.0454 46.9393 15.0536 46.7412 15.0536C46.147 15.0536 45.7509 14.9546 45.5528 14.7565C45.3547 14.5585 45.2557 14.1623 45.2557 13.5681V7.22971H47.8306V4.87758H45.2557Z" fill="white"/>
<path d="M58.1197 9.90371H52.4003C52.4168 9.65612 52.4663 9.37551 52.5488 9.0619C52.6479 8.74828 52.8047 8.45117 53.0193 8.17056C53.2503 7.88996 53.5474 7.65887 53.9106 7.4773C54.2902 7.27923 54.7607 7.18019 55.3219 7.18019C56.1802 7.18019 56.8157 7.41128 57.2283 7.87345C57.6575 8.33562 57.9546 9.01238 58.1197 9.90371ZM52.4003 12.132H61.6355C61.7015 11.1417 61.619 10.1926 61.3879 9.28473C61.1568 8.37689 60.7772 7.56809 60.249 6.85832C59.7373 6.14856 59.077 5.58735 58.2682 5.17469C57.4594 4.74553 56.5103 4.53095 55.4209 4.53095C54.447 4.53095 53.5557 4.70426 52.7469 5.05089C51.9546 5.39752 51.2696 5.8762 50.6919 6.48693C50.1142 7.08116 49.6685 7.79092 49.3549 8.61623C49.0413 9.44154 48.8845 10.3329 48.8845 11.2902C48.8845 12.2806 49.033 13.1884 49.3301 14.0138C49.6437 14.8391 50.0812 15.5488 50.6424 16.1431C51.2036 16.7373 51.8886 17.1994 52.6974 17.5296C53.5062 17.8432 54.414 18 55.4209 18C56.8734 18 58.1114 17.6699 59.1348 17.0096C60.1582 16.3494 60.9175 15.2517 61.4126 13.7166H58.3177C58.2022 14.1128 57.8886 14.4924 57.3769 14.8556C56.8652 15.2022 56.2545 15.3755 55.5447 15.3755C54.5543 15.3755 53.795 15.1197 53.2668 14.608C52.7386 14.0963 52.4498 13.271 52.4003 12.132Z" fill="white"/>
<path d="M63.7207 4.87758V17.6781H67.2365V11.9092C67.2365 11.3315 67.2943 10.795 67.4098 10.2999C67.5254 9.80468 67.7152 9.37551 67.9793 9.01238C68.2599 8.63274 68.623 8.33563 69.0687 8.12105C69.5143 7.90646 70.0591 7.79917 70.7028 7.79917C70.9174 7.79917 71.1402 7.81568 71.3713 7.84869C71.6024 7.8652 71.8005 7.88996 71.9655 7.92297V4.65475C71.6849 4.57221 71.4291 4.53095 71.198 4.53095C70.7523 4.53095 70.3231 4.59697 69.9105 4.72902C69.4978 4.86107 69.1099 5.05089 68.7468 5.29849C68.3837 5.52957 68.0618 5.81843 67.7812 6.16506C67.5006 6.49519 67.2778 6.85832 67.1127 7.25447H67.0632V4.87758H63.7207Z" fill="white"/>
<path d="M73.9877 0V17.6781H76.216V2.97111H76.2655L81.7868 17.6781H83.7923L89.3137 2.97111H89.3632V17.6781H91.5915V0H88.3728L82.7772 14.8556L77.2064 0H73.9877Z" fill="white"/>
<path d="M104.048 10.0523H96.6942C96.7273 9.55708 96.8346 9.09491 97.0161 8.66575C97.1977 8.22008 97.4453 7.83219 97.7589 7.50206C98.0725 7.17194 98.4439 6.91609 98.8731 6.73452C99.3187 6.53645 99.8139 6.43741 100.359 6.43741C100.887 6.43741 101.365 6.53645 101.795 6.73452C102.24 6.91609 102.62 7.17194 102.934 7.50206C103.264 7.81568 103.52 8.19532 103.701 8.64099C103.899 9.08666 104.015 9.55708 104.048 10.0523ZM106.078 13.6176H103.998C103.817 14.4594 103.437 15.0867 102.859 15.4993C102.298 15.912 101.572 16.1183 100.68 16.1183C99.9872 16.1183 99.3848 16.0028 98.8731 15.7717C98.3614 15.5406 97.9405 15.2352 97.6103 14.8556C97.2802 14.4594 97.0409 14.0138 96.8923 13.5186C96.7438 13.0069 96.6777 12.4704 96.6942 11.9092H106.276C106.309 11.1334 106.235 10.3164 106.053 9.45805C105.888 8.59973 105.575 7.80743 105.112 7.08115C104.667 6.35488 104.064 5.76066 103.305 5.29849C102.562 4.81981 101.621 4.58047 100.482 4.58047C99.6076 4.58047 98.7988 4.74553 98.056 5.07565C97.3297 5.40578 96.6942 5.86795 96.1495 6.46217C95.6213 7.0564 95.2087 7.75791 94.9116 8.56671C94.6145 9.37552 94.4659 10.2668 94.4659 11.2407C94.4989 12.2146 94.6392 13.1142 94.8868 13.9395C95.1509 14.7648 95.5388 15.4746 96.0505 16.0688C96.5622 16.663 97.1894 17.1252 97.9322 17.4553C98.6915 17.7854 99.5828 17.9505 100.606 17.9505C102.059 17.9505 103.264 17.5873 104.221 16.8611C105.178 16.1348 105.797 15.0536 106.078 13.6176Z" fill="white"/>
<path d="M111.379 4.87758V1.03989H109.275V4.87758H107.096V6.73452H109.275V14.8803C109.275 15.4746 109.332 15.9532 109.448 16.3164C109.564 16.6795 109.737 16.9601 109.968 17.1582C110.216 17.3563 110.529 17.4966 110.909 17.5791C111.305 17.6451 111.775 17.6781 112.32 17.6781H113.929V15.8212H112.964C112.634 15.8212 112.361 15.8129 112.147 15.7964C111.949 15.7634 111.792 15.7056 111.676 15.6231C111.561 15.5406 111.478 15.425 111.429 15.2765C111.396 15.1279 111.379 14.9298 111.379 14.6823V6.73452H113.929V4.87758H111.379Z" fill="white"/>
<path d="M125.156 10.0523H117.802C117.836 9.55708 117.943 9.09491 118.124 8.66575C118.306 8.22008 118.554 7.83219 118.867 7.50206C119.181 7.17194 119.552 6.91609 119.981 6.73452C120.427 6.53645 120.922 6.43741 121.467 6.43741C121.995 6.43741 122.474 6.53645 122.903 6.73452C123.349 6.91609 123.728 7.17194 124.042 7.50206C124.372 7.81568 124.628 8.19532 124.809 8.64099C125.007 9.08666 125.123 9.55708 125.156 10.0523ZM127.186 13.6176H125.106C124.925 14.4594 124.545 15.0867 123.968 15.4993C123.406 15.912 122.68 16.1183 121.789 16.1183C121.095 16.1183 120.493 16.0028 119.981 15.7717C119.47 15.5406 119.049 15.2352 118.719 14.8556C118.388 14.4594 118.149 14.0138 118.001 13.5186C117.852 13.0069 117.786 12.4704 117.802 11.9092H127.384C127.417 11.1334 127.343 10.3164 127.162 9.45805C126.996 8.59973 126.683 7.80743 126.221 7.08115C125.775 6.35488 125.173 5.76066 124.413 5.29849C123.67 4.81981 122.73 4.58047 121.591 4.58047C120.716 4.58047 119.907 4.74553 119.164 5.07565C118.438 5.40578 117.802 5.86795 117.258 6.46217C116.73 7.0564 116.317 7.75791 116.02 8.56671C115.723 9.37552 115.574 10.2668 115.574 11.2407C115.607 12.2146 115.747 13.1142 115.995 13.9395C116.259 14.7648 116.647 15.4746 117.159 16.0688C117.67 16.663 118.298 17.1252 119.04 17.4553C119.8 17.7854 120.691 17.9505 121.714 17.9505C123.167 17.9505 124.372 17.5873 125.329 16.8611C126.287 16.1348 126.906 15.0536 127.186 13.6176Z" fill="white"/>
<path d="M129.492 4.87758V17.6781H131.596V11.9835C131.596 11.1582 131.679 10.4319 131.844 9.80468C132.009 9.16093 132.273 8.61623 132.636 8.17056C132.999 7.7249 133.478 7.38652 134.072 7.15543C134.666 6.92435 135.384 6.8088 136.226 6.8088V4.58047C135.087 4.54746 134.146 4.77854 133.404 5.27373C132.661 5.76891 132.034 6.53645 131.522 7.57634H131.472V4.87758H129.492Z" fill="white"/>
</svg>
