<svg width="1177" height="496" viewBox="0 0 1177 496" fill="none" xmlns="http://www.w3.org/2000/svg">
<path d="M691 39L691 460" stroke="#E5E5E5"/>
<path d="M4.312 495.168C3.35067 495.168 2.61333 494.897 2.1 494.356C1.58667 493.805 1.33 493.049 1.33 492.088H2.52C2.52933 492.639 2.674 493.11 2.954 493.502C3.234 493.885 3.682 494.076 4.298 494.076C4.914 494.076 5.35267 493.889 5.614 493.516C5.88467 493.143 6.02 492.676 6.02 492.116V485.2H7.196V492.116C7.196 493.096 6.944 493.852 6.44 494.384C5.936 494.907 5.22667 495.168 4.312 495.168ZM8.85653 495L11.9225 485.2H13.2805L16.3325 495H15.0445L14.3305 492.564H10.8585L10.1445 495H8.85653ZM12.5665 486.852L11.1525 491.584H14.0365L12.6225 486.852H12.5665ZM17.5871 495V485.2H18.7911L23.2431 492.942V485.2H24.4051V495H23.1871L18.7351 487.258V495H17.5871Z" fill="#AFAFAF"/>
<path d="M97.274 495V485.2H103.392V486.292H98.45V489.708H102.678V490.758H98.45V495H97.274ZM105.599 495V485.2H111.717V486.264H106.775V489.526H111.297V490.59H106.775V493.936H111.717V495H105.599ZM113.713 495V485.2H116.975C117.992 485.2 118.758 485.433 119.271 485.9C119.784 486.367 120.041 486.964 120.041 487.692C120.041 488.261 119.887 488.733 119.579 489.106C119.271 489.47 118.926 489.727 118.543 489.876V489.974C119 490.123 119.402 490.394 119.747 490.786C120.092 491.178 120.265 491.682 120.265 492.298C120.265 492.802 120.139 493.259 119.887 493.67C119.644 494.071 119.285 494.393 118.809 494.636C118.342 494.879 117.768 495 117.087 495H113.713ZM114.889 489.428H116.891C117.516 489.428 117.992 489.293 118.319 489.022C118.655 488.742 118.823 488.341 118.823 487.818C118.823 487.323 118.66 486.941 118.333 486.67C118.006 486.399 117.512 486.264 116.849 486.264H114.889V489.428ZM114.889 493.922H116.961C117.633 493.922 118.151 493.773 118.515 493.474C118.879 493.166 119.061 492.737 119.061 492.186C119.061 491.635 118.87 491.211 118.487 490.912C118.104 490.604 117.586 490.45 116.933 490.45H114.889V493.922Z" fill="#AFAFAF"/>
<path d="M194.7 495V485.2H195.96L198.2 489.862L200.44 485.2H201.7V495H200.552V487.468L198.648 491.43H197.752L195.848 487.482V495H194.7ZM202.857 495L205.923 485.2H207.281L210.333 495H209.045L208.331 492.564H204.859L204.145 495H202.857ZM206.567 486.852L205.153 491.584H208.037L206.623 486.852H206.567ZM211.937 495V485.2H214.947C215.703 485.2 216.324 485.326 216.809 485.578C217.304 485.83 217.672 486.175 217.915 486.614C218.158 487.043 218.279 487.533 218.279 488.084C218.279 488.728 218.111 489.297 217.775 489.792C217.448 490.277 216.944 490.618 216.263 490.814L218.391 495H216.991L215.017 490.982H214.947H213.113V495H211.937ZM213.113 489.904H214.905C215.652 489.904 216.198 489.736 216.543 489.4C216.898 489.055 217.075 488.616 217.075 488.084C217.075 487.524 216.902 487.081 216.557 486.754C216.221 486.427 215.666 486.264 214.891 486.264H213.113V489.904Z" fill="#AFAFAF"/>
<path d="M292.462 495L295.528 485.2H296.886L299.938 495H298.65L297.936 492.564H294.464L293.75 495H292.462ZM296.172 486.852L294.758 491.584H297.642L296.228 486.852H296.172ZM301.431 495V485.2H304.693C305.439 485.2 306.051 485.335 306.527 485.606C307.003 485.877 307.353 486.236 307.577 486.684C307.801 487.132 307.913 487.627 307.913 488.168C307.913 488.709 307.801 489.204 307.577 489.652C307.353 490.1 307.003 490.459 306.527 490.73C306.051 491.001 305.439 491.136 304.693 491.136H302.607V495H301.431ZM302.607 490.058H304.665C305.355 490.058 305.869 489.885 306.205 489.54C306.541 489.185 306.709 488.728 306.709 488.168C306.709 487.608 306.541 487.151 306.205 486.796C305.869 486.441 305.355 486.264 304.665 486.264H302.607V490.058ZM309.937 495V485.2H312.947C313.703 485.2 314.324 485.326 314.809 485.578C315.304 485.83 315.672 486.175 315.915 486.614C316.158 487.043 316.279 487.533 316.279 488.084C316.279 488.728 316.111 489.297 315.775 489.792C315.448 490.277 314.944 490.618 314.263 490.814L316.391 495H314.991L313.017 490.982H312.947H311.113V495H309.937ZM311.113 489.904H312.905C313.652 489.904 314.198 489.736 314.543 489.4C314.898 489.055 315.075 488.616 315.075 488.084C315.075 487.524 314.902 487.081 314.557 486.754C314.221 486.427 313.666 486.264 312.891 486.264H311.113V489.904Z" fill="#AFAFAF"/>
<path d="M388.7 495V485.2H389.96L392.2 489.862L394.44 485.2H395.7V495H394.552V487.468L392.648 491.43H391.752L389.848 487.482V495H388.7ZM396.857 495L399.923 485.2H401.281L404.333 495H403.045L402.331 492.564H398.859L398.145 495H396.857ZM400.567 486.852L399.153 491.584H402.037L400.623 486.852H400.567ZM408.401 495V491.15L405.223 485.2H406.553L408.989 489.96L411.425 485.2H412.755L409.577 491.15V495H408.401Z" fill="#AFAFAF"/>
<path d="M493.312 495.168C492.351 495.168 491.613 494.897 491.1 494.356C490.587 493.805 490.33 493.049 490.33 492.088H491.52C491.529 492.639 491.674 493.11 491.954 493.502C492.234 493.885 492.682 494.076 493.298 494.076C493.914 494.076 494.353 493.889 494.614 493.516C494.885 493.143 495.02 492.676 495.02 492.116V485.2H496.196V492.116C496.196 493.096 495.944 493.852 495.44 494.384C494.936 494.907 494.227 495.168 493.312 495.168ZM501.581 495.168C500.927 495.168 500.344 495.033 499.831 494.762C499.327 494.491 498.925 494.081 498.627 493.53C498.337 492.97 498.193 492.27 498.193 491.43V485.2H499.369V491.472C499.369 492.312 499.574 492.961 499.985 493.418C500.395 493.875 500.937 494.104 501.609 494.104C502.281 494.104 502.817 493.875 503.219 493.418C503.62 492.961 503.821 492.312 503.821 491.472V485.2H504.997V491.43C504.997 492.27 504.847 492.97 504.549 493.53C504.25 494.081 503.844 494.491 503.331 494.762C502.817 495.033 502.234 495.168 501.581 495.168ZM506.587 495V485.2H507.791L512.243 492.942V485.2H513.405V495H512.187L507.735 487.258V495H506.587Z" fill="#AFAFAF"/>
<path d="M590.312 495.168C589.351 495.168 588.613 494.897 588.1 494.356C587.587 493.805 587.33 493.049 587.33 492.088H588.52C588.529 492.639 588.674 493.11 588.954 493.502C589.234 493.885 589.682 494.076 590.298 494.076C590.914 494.076 591.353 493.889 591.614 493.516C591.885 493.143 592.02 492.676 592.02 492.116V485.2H593.196V492.116C593.196 493.096 592.944 493.852 592.44 494.384C591.936 494.907 591.227 495.168 590.312 495.168ZM598.581 495.168C597.927 495.168 597.344 495.033 596.831 494.762C596.327 494.491 595.925 494.081 595.627 493.53C595.337 492.97 595.193 492.27 595.193 491.43V485.2H596.369V491.472C596.369 492.312 596.574 492.961 596.985 493.418C597.395 493.875 597.937 494.104 598.609 494.104C599.281 494.104 599.817 493.875 600.219 493.418C600.62 492.961 600.821 492.312 600.821 491.472V485.2H601.997V491.43C601.997 492.27 601.847 492.97 601.549 493.53C601.25 494.081 600.844 494.491 600.331 494.762C599.817 495.033 599.234 495.168 598.581 495.168ZM604.007 495V485.2H605.183V493.936H610.153V495H604.007Z" fill="#AFAFAF"/>
<path d="M679.392 495L682.318 485.2H684.082L687.008 495H685.398L684.74 492.648H681.66L681.002 495H679.392ZM683.158 487.3L681.996 491.458H684.404L683.242 487.3H683.158ZM691.567 495.168C690.904 495.168 690.311 495.033 689.789 494.762C689.275 494.491 688.869 494.081 688.571 493.53C688.272 492.97 688.123 492.265 688.123 491.416V485.2H689.607V491.5C689.607 492.247 689.784 492.825 690.139 493.236C690.493 493.637 690.979 493.838 691.595 493.838C692.211 493.838 692.696 493.637 693.051 493.236C693.405 492.825 693.583 492.247 693.583 491.5V485.2H695.067V491.416C695.067 492.265 694.913 492.97 694.605 493.53C694.297 494.081 693.877 494.491 693.345 494.762C692.822 495.033 692.229 495.168 691.567 495.168ZM699.863 495.168C699.135 495.168 698.496 494.963 697.945 494.552C697.394 494.132 696.965 493.544 696.657 492.788C696.349 492.032 696.195 491.136 696.195 490.1C696.195 489.083 696.349 488.196 696.657 487.44C696.965 486.684 697.404 486.096 697.973 485.676C698.552 485.247 699.242 485.032 700.045 485.032C701.016 485.032 701.795 485.298 702.383 485.83C702.98 486.362 703.344 487.113 703.475 488.084H701.865C701.772 487.58 701.566 487.179 701.249 486.88C700.941 486.581 700.54 486.432 700.045 486.432C699.289 486.432 698.71 486.759 698.309 487.412C697.908 488.065 697.707 488.961 697.707 490.1C697.707 491.285 697.917 492.195 698.337 492.83C698.766 493.455 699.322 493.768 700.003 493.768C700.46 493.768 700.838 493.633 701.137 493.362C701.436 493.091 701.664 492.746 701.823 492.326C701.982 491.897 702.08 491.444 702.117 490.968H700.059V489.736H703.615V495H702.243L702.145 493.684H702.061C701.874 494.113 701.613 494.468 701.277 494.748C700.941 495.028 700.47 495.168 699.863 495.168Z" fill="#0C172E"/>
<path d="M780.298 495.168C779.607 495.168 779.005 495.037 778.492 494.776C777.988 494.515 777.596 494.151 777.316 493.684C777.045 493.217 776.905 492.671 776.896 492.046H778.128C778.137 492.606 778.324 493.091 778.688 493.502C779.061 493.903 779.598 494.104 780.298 494.104C780.942 494.104 781.437 493.95 781.782 493.642C782.137 493.325 782.314 492.947 782.314 492.508C782.314 492.144 782.23 491.841 782.062 491.598C781.894 491.346 781.619 491.127 781.236 490.94C780.863 490.744 780.359 490.543 779.724 490.338C778.828 490.067 778.175 489.699 777.764 489.232C777.353 488.765 777.148 488.187 777.148 487.496C777.148 487.029 777.269 486.609 777.512 486.236C777.755 485.863 778.105 485.569 778.562 485.354C779.019 485.139 779.575 485.032 780.228 485.032C780.844 485.032 781.381 485.149 781.838 485.382C782.305 485.606 782.664 485.923 782.916 486.334C783.177 486.745 783.308 487.216 783.308 487.748H782.076C782.076 487.487 782.006 487.23 781.866 486.978C781.726 486.726 781.516 486.516 781.236 486.348C780.956 486.18 780.601 486.096 780.172 486.096C779.659 486.096 779.229 486.222 778.884 486.474C778.539 486.717 778.366 487.053 778.366 487.482C778.366 487.809 778.441 488.084 778.59 488.308C778.749 488.532 779.005 488.737 779.36 488.924C779.715 489.101 780.195 489.293 780.802 489.498C781.371 489.685 781.857 489.904 782.258 490.156C782.669 490.399 782.981 490.702 783.196 491.066C783.42 491.43 783.532 491.883 783.532 492.424C783.532 492.956 783.397 493.427 783.126 493.838C782.855 494.249 782.477 494.575 781.992 494.818C781.507 495.051 780.942 495.168 780.298 495.168ZM785.599 495V485.2H791.717V486.264H786.775V489.526H791.297V490.59H786.775V493.936H791.717V495H785.599ZM793.825 495V485.2H797.087C797.834 485.2 798.445 485.335 798.921 485.606C799.397 485.877 799.747 486.236 799.971 486.684C800.195 487.132 800.307 487.627 800.307 488.168C800.307 488.709 800.195 489.204 799.971 489.652C799.747 490.1 799.397 490.459 798.921 490.73C798.445 491.001 797.834 491.136 797.087 491.136H795.001V495H793.825ZM795.001 490.058H797.059C797.75 490.058 798.263 489.885 798.599 489.54C798.935 489.185 799.103 488.728 799.103 488.168C799.103 487.608 798.935 487.151 798.599 486.796C798.263 486.441 797.75 486.264 797.059 486.264H795.001V490.058Z" fill="#AFAFAF"/>
<path d="M879.2 495.168C878.407 495.168 877.725 494.958 877.156 494.538C876.587 494.118 876.148 493.53 875.84 492.774C875.541 492.009 875.392 491.117 875.392 490.1C875.392 489.083 875.541 488.196 875.84 487.44C876.148 486.675 876.587 486.082 877.156 485.662C877.725 485.242 878.407 485.032 879.2 485.032C879.993 485.032 880.675 485.242 881.244 485.662C881.813 486.082 882.247 486.675 882.546 487.44C882.854 488.196 883.008 489.083 883.008 490.1C883.008 491.117 882.854 492.009 882.546 492.774C882.247 493.53 881.813 494.118 881.244 494.538C880.675 494.958 879.993 495.168 879.2 495.168ZM879.2 494.062C879.975 494.062 880.6 493.717 881.076 493.026C881.561 492.335 881.804 491.36 881.804 490.1C881.804 488.84 881.561 487.865 881.076 487.174C880.6 486.483 879.975 486.138 879.2 486.138C878.416 486.138 877.786 486.483 877.31 487.174C876.834 487.865 876.596 488.84 876.596 490.1C876.596 491.36 876.834 492.335 877.31 493.026C877.786 493.717 878.416 494.062 879.2 494.062ZM887.665 495.168C886.871 495.168 886.185 494.958 885.607 494.538C885.037 494.118 884.599 493.53 884.291 492.774C883.992 492.018 883.843 491.127 883.843 490.1C883.843 489.083 883.992 488.196 884.291 487.44C884.599 486.675 885.037 486.082 885.607 485.662C886.185 485.242 886.871 485.032 887.665 485.032C888.673 485.032 889.485 485.312 890.101 485.872C890.717 486.423 891.076 487.16 891.179 488.084H889.877C889.783 487.533 889.55 487.071 889.177 486.698C888.803 486.325 888.299 486.138 887.665 486.138C886.853 486.138 886.213 486.493 885.747 487.202C885.28 487.902 885.047 488.868 885.047 490.1C885.047 491.341 885.28 492.312 885.747 493.012C886.213 493.712 886.853 494.062 887.665 494.062C888.327 494.062 888.836 493.885 889.191 493.53C889.555 493.175 889.783 492.718 889.877 492.158H891.179C891.029 493.091 890.656 493.829 890.059 494.37C889.471 494.902 888.673 495.168 887.665 495.168ZM895.401 495V486.264H892.769V485.2H899.209V486.264H896.577V495H895.401Z" fill="#AFAFAF"/>
<path d="M971.798 495V485.2H973.002L977.454 492.942V485.2H978.616V495H977.398L972.946 487.258V495H971.798ZM983.595 495.168C982.801 495.168 982.12 494.958 981.551 494.538C980.981 494.118 980.543 493.53 980.235 492.774C979.936 492.009 979.787 491.117 979.787 490.1C979.787 489.083 979.936 488.196 980.235 487.44C980.543 486.675 980.981 486.082 981.551 485.662C982.12 485.242 982.801 485.032 983.595 485.032C984.388 485.032 985.069 485.242 985.639 485.662C986.208 486.082 986.642 486.675 986.941 487.44C987.249 488.196 987.403 489.083 987.403 490.1C987.403 491.117 987.249 492.009 986.941 492.774C986.642 493.53 986.208 494.118 985.639 494.538C985.069 494.958 984.388 495.168 983.595 495.168ZM983.595 494.062C984.369 494.062 984.995 493.717 985.471 493.026C985.956 492.335 986.199 491.36 986.199 490.1C986.199 488.84 985.956 487.865 985.471 487.174C984.995 486.483 984.369 486.138 983.595 486.138C982.811 486.138 982.181 486.483 981.705 487.174C981.229 487.865 980.991 488.84 980.991 490.1C980.991 491.36 981.229 492.335 981.705 493.026C982.181 493.717 982.811 494.062 983.595 494.062ZM991.289 495L988.167 485.2H989.427L991.989 493.474L994.551 485.2H995.825L992.689 495H991.289Z" fill="#AFAFAF"/>
<path d="M1070.92 495V485.2H1072.98C1074.59 485.2 1075.77 485.639 1076.54 486.516C1077.31 487.393 1077.7 488.588 1077.7 490.1C1077.7 491.612 1077.31 492.807 1076.54 493.684C1075.77 494.561 1074.59 495 1072.98 495H1070.92ZM1072.1 493.922H1072.95C1073.81 493.922 1074.5 493.763 1075.01 493.446C1075.53 493.129 1075.91 492.685 1076.15 492.116C1076.38 491.547 1076.5 490.875 1076.5 490.1C1076.5 489.325 1076.38 488.653 1076.15 488.084C1075.91 487.515 1075.53 487.071 1075.01 486.754C1074.5 486.437 1073.81 486.278 1072.95 486.278H1072.1V493.922ZM1079.6 495V485.2H1085.72V486.264H1080.77V489.526H1085.3V490.59H1080.77V493.936H1085.72V495H1079.6ZM1091.06 495.168C1090.27 495.168 1089.58 494.958 1089 494.538C1088.43 494.118 1087.99 493.53 1087.69 492.774C1087.39 492.018 1087.24 491.127 1087.24 490.1C1087.24 489.083 1087.39 488.196 1087.69 487.44C1087.99 486.675 1088.43 486.082 1089 485.662C1089.58 485.242 1090.27 485.032 1091.06 485.032C1092.07 485.032 1092.88 485.312 1093.5 485.872C1094.11 486.423 1094.47 487.16 1094.57 488.084H1093.27C1093.18 487.533 1092.94 487.071 1092.57 486.698C1092.2 486.325 1091.69 486.138 1091.06 486.138C1090.25 486.138 1089.61 486.493 1089.14 487.202C1088.67 487.902 1088.44 488.868 1088.44 490.1C1088.44 491.341 1088.67 492.312 1089.14 493.012C1089.61 493.712 1090.25 494.062 1091.06 494.062C1091.72 494.062 1092.23 493.885 1092.59 493.53C1092.95 493.175 1093.18 492.718 1093.27 492.158H1094.57C1094.42 493.091 1094.05 493.829 1093.45 494.37C1092.87 494.902 1092.07 495.168 1091.06 495.168Z" fill="#AFAFAF"/>
<path d="M1153.8 459.192C1152.96 459.192 1152.21 458.957 1151.56 458.488C1150.92 458.019 1150.42 457.352 1150.06 456.488C1149.7 455.624 1149.53 454.595 1149.53 453.4C1149.53 452.205 1149.7 451.176 1150.06 450.312C1150.42 449.448 1150.92 448.781 1151.56 448.312C1152.21 447.843 1152.96 447.608 1153.8 447.608C1154.65 447.608 1155.4 447.843 1156.04 448.312C1156.68 448.781 1157.18 449.448 1157.53 450.312C1157.89 451.176 1158.07 452.205 1158.07 453.4C1158.07 454.595 1157.89 455.624 1157.53 456.488C1157.18 457.352 1156.68 458.019 1156.04 458.488C1155.4 458.957 1154.65 459.192 1153.8 459.192ZM1150.9 453.4C1150.9 454.125 1150.98 454.781 1151.13 455.368C1151.29 455.944 1151.51 456.429 1151.78 456.824L1154.89 449.128C1154.56 448.947 1154.19 448.856 1153.8 448.856C1153.23 448.856 1152.73 449.043 1152.3 449.416C1151.86 449.779 1151.52 450.301 1151.27 450.984C1151.03 451.656 1150.9 452.461 1150.9 453.4ZM1153.8 457.96C1154.37 457.96 1154.87 457.779 1155.3 457.416C1155.74 457.043 1156.08 456.515 1156.33 455.832C1156.57 455.149 1156.7 454.339 1156.7 453.4C1156.7 452.675 1156.62 452.024 1156.46 451.448C1156.31 450.861 1156.09 450.371 1155.82 449.976L1152.7 457.688C1153.04 457.869 1153.41 457.96 1153.8 457.96Z" fill="#AFAFAF"/>
<path d="M1153.8 355.192C1153.03 355.192 1152.37 355.048 1151.82 354.76C1151.26 354.472 1150.82 354.083 1150.5 353.592C1150.18 353.101 1149.99 352.541 1149.93 351.912H1151.3C1151.4 352.52 1151.67 353.016 1152.12 353.4C1152.57 353.773 1153.13 353.96 1153.82 353.96C1154.62 353.96 1155.25 353.704 1155.7 353.192C1156.16 352.669 1156.39 352.013 1156.39 351.224C1156.39 350.392 1156.16 349.741 1155.69 349.272C1155.22 348.792 1154.61 348.552 1153.86 348.552C1153.27 348.552 1152.75 348.691 1152.33 348.968C1151.91 349.235 1151.58 349.576 1151.32 349.992H1150.04L1151 343.8H1156.98V345.032H1152.06L1151.46 348.36H1151.54C1151.79 348.093 1152.12 347.859 1152.54 347.656C1152.96 347.453 1153.45 347.352 1154.01 347.352C1154.74 347.352 1155.38 347.512 1155.93 347.832C1156.48 348.141 1156.91 348.589 1157.22 349.176C1157.53 349.752 1157.69 350.429 1157.69 351.208C1157.69 351.933 1157.53 352.6 1157.22 353.208C1156.93 353.805 1156.48 354.285 1155.9 354.648C1155.32 355.011 1154.62 355.192 1153.8 355.192ZM1160.37 355V343.48H1161.71V350.424L1165.03 347.064H1166.74L1163.2 350.6V350.696L1167.17 355H1165.51L1161.71 350.872V355H1160.37Z" fill="#AFAFAF"/>
<path d="M1150.12 254V252.784H1153.02V244.384L1150.28 244.912V243.888L1153.46 242.8H1154.36V252.784H1157.42V254H1150.12ZM1163.39 254.192C1162.55 254.192 1161.8 253.957 1161.15 253.488C1160.51 253.019 1160.01 252.352 1159.65 251.488C1159.3 250.624 1159.12 249.595 1159.12 248.4C1159.12 247.205 1159.3 246.176 1159.65 245.312C1160.01 244.448 1160.51 243.781 1161.15 243.312C1161.8 242.843 1162.55 242.608 1163.39 242.608C1164.25 242.608 1164.99 242.843 1165.63 243.312C1166.27 243.781 1166.77 244.448 1167.12 245.312C1167.48 246.176 1167.67 247.205 1167.67 248.4C1167.67 249.595 1167.48 250.624 1167.12 251.488C1166.77 252.352 1166.27 253.019 1165.63 253.488C1164.99 253.957 1164.25 254.192 1163.39 254.192ZM1160.5 248.4C1160.5 249.125 1160.57 249.781 1160.72 250.368C1160.88 250.944 1161.1 251.429 1161.38 251.824L1164.48 244.128C1164.15 243.947 1163.79 243.856 1163.39 243.856C1162.83 243.856 1162.33 244.043 1161.89 244.416C1161.45 244.779 1161.11 245.301 1160.87 245.984C1160.62 246.656 1160.5 247.461 1160.5 248.4ZM1163.39 252.96C1163.96 252.96 1164.46 252.779 1164.9 252.416C1165.34 252.043 1165.68 251.515 1165.92 250.832C1166.17 250.149 1166.29 249.339 1166.29 248.4C1166.29 247.675 1166.21 247.024 1166.05 246.448C1165.9 245.861 1165.69 245.371 1165.41 244.976L1162.29 252.688C1162.63 252.869 1163 252.96 1163.39 252.96ZM1169.96 254V242.48H1171.31V249.424L1174.62 246.064H1176.33L1172.8 249.6V249.696L1176.76 254H1175.1L1171.31 249.872V254H1169.96Z" fill="#AFAFAF"/>
<path d="M1150.12 153V151.784H1153.02V143.384L1150.28 143.912V142.888L1153.46 141.8H1154.36V151.784H1157.42V153H1150.12ZM1163.39 153.192C1162.63 153.192 1161.96 153.048 1161.41 152.76C1160.86 152.472 1160.42 152.083 1160.1 151.592C1159.78 151.101 1159.59 150.541 1159.52 149.912H1160.9C1160.99 150.52 1161.27 151.016 1161.71 151.4C1162.16 151.773 1162.73 151.96 1163.41 151.96C1164.21 151.96 1164.84 151.704 1165.3 151.192C1165.76 150.669 1165.99 150.013 1165.99 149.224C1165.99 148.392 1165.75 147.741 1165.28 147.272C1164.81 146.792 1164.2 146.552 1163.46 146.552C1162.86 146.552 1162.35 146.691 1161.92 146.968C1161.51 147.235 1161.17 147.576 1160.91 147.992H1159.63L1160.59 141.8H1166.58V143.032H1161.65L1161.06 146.36H1161.14C1161.38 146.093 1161.71 145.859 1162.13 145.656C1162.56 145.453 1163.05 145.352 1163.6 145.352C1164.34 145.352 1164.98 145.512 1165.52 145.832C1166.08 146.141 1166.51 146.589 1166.82 147.176C1167.13 147.752 1167.28 148.429 1167.28 149.208C1167.28 149.933 1167.13 150.6 1166.82 151.208C1166.52 151.805 1166.08 152.285 1165.49 152.648C1164.91 153.011 1164.22 153.192 1163.39 153.192ZM1169.96 153V141.48H1171.31V148.424L1174.62 145.064H1176.33L1172.8 148.6V148.696L1176.76 153H1175.1L1171.31 148.872V153H1169.96Z" fill="#AFAFAF"/>
<path d="M1150.18 52V50.944C1151.34 50.0267 1152.34 49.184 1153.19 48.416C1154.06 47.648 1154.72 46.9067 1155.19 46.192C1155.66 45.4773 1155.9 44.7467 1155.9 44C1155.9 43.328 1155.7 42.8 1155.32 42.416C1154.95 42.0213 1154.44 41.824 1153.8 41.824C1153.31 41.824 1152.89 41.9307 1152.55 42.144C1152.21 42.3573 1151.95 42.64 1151.78 42.992C1151.61 43.344 1151.53 43.7227 1151.53 44.128H1150.2C1150.21 43.392 1150.37 42.7627 1150.68 42.24C1151 41.7067 1151.43 41.3013 1151.96 41.024C1152.5 40.7467 1153.12 40.608 1153.8 40.608C1154.9 40.608 1155.75 40.912 1156.36 41.52C1156.97 42.128 1157.27 42.944 1157.27 43.968C1157.27 44.64 1157.13 45.2853 1156.84 45.904C1156.55 46.512 1156.17 47.0987 1155.69 47.664C1155.21 48.2293 1154.67 48.7733 1154.07 49.296C1153.47 49.8187 1152.87 50.32 1152.26 50.8H1157.58V52H1150.18ZM1163.39 52.192C1162.55 52.192 1161.8 51.9573 1161.15 51.488C1160.51 51.0187 1160.01 50.352 1159.65 49.488C1159.3 48.624 1159.12 47.5947 1159.12 46.4C1159.12 45.2053 1159.3 44.176 1159.65 43.312C1160.01 42.448 1160.51 41.7813 1161.15 41.312C1161.8 40.8427 1162.55 40.608 1163.39 40.608C1164.25 40.608 1164.99 40.8427 1165.63 41.312C1166.27 41.7813 1166.77 42.448 1167.12 43.312C1167.48 44.176 1167.67 45.2053 1167.67 46.4C1167.67 47.5947 1167.48 48.624 1167.12 49.488C1166.77 50.352 1166.27 51.0187 1165.63 51.488C1164.99 51.9573 1164.25 52.192 1163.39 52.192ZM1160.5 46.4C1160.5 47.1253 1160.57 47.7813 1160.72 48.368C1160.88 48.944 1161.1 49.4293 1161.38 49.824L1164.48 42.128C1164.15 41.9467 1163.79 41.856 1163.39 41.856C1162.83 41.856 1162.33 42.0427 1161.89 42.416C1161.45 42.7787 1161.11 43.3013 1160.87 43.984C1160.62 44.656 1160.5 45.4613 1160.5 46.4ZM1163.39 50.96C1163.96 50.96 1164.46 50.7787 1164.9 50.416C1165.34 50.0427 1165.68 49.5147 1165.92 48.832C1166.17 48.1493 1166.29 47.3387 1166.29 46.4C1166.29 45.6747 1166.21 45.024 1166.05 44.448C1165.9 43.8613 1165.69 43.3707 1165.41 42.976L1162.29 50.688C1162.63 50.8693 1163 50.96 1163.39 50.96ZM1169.96 52V40.48H1171.31V47.424L1174.62 44.064H1176.33L1172.8 47.6V47.696L1176.76 52H1175.1L1171.31 47.872V52H1169.96Z" fill="#AFAFAF"/>
<circle cx="8" cy="16" r="7.5" fill="white" stroke="#3DDDAA"/>
<circle cx="111" cy="16" r="7.5" fill="white" stroke="#1B7FF3"/>
<rect x="238" width="105" height="32" rx="16" fill="#FF9900"/>
<circle cx="256" cy="16" r="8" fill="white"/>
<circle cx="376" cy="16" r="7.5" fill="white" stroke="#571DFE"/>
<circle cx="540" cy="16" r="7.5" fill="white" stroke="#0C172E"/>
<path d="M23.994 21V11.2H27.172C28.32 11.2 29.2627 11.4007 30 11.802C30.7467 12.2033 31.2973 12.7727 31.652 13.51C32.016 14.238 32.198 15.106 32.198 16.114C32.198 17.1127 32.016 17.9807 31.652 18.718C31.2973 19.446 30.7467 20.0107 30 20.412C29.2627 20.804 28.32 21 27.172 21H23.994ZM25.478 19.74H27.116C28.0027 19.74 28.7027 19.5953 29.216 19.306C29.7387 19.0167 30.112 18.6013 30.336 18.06C30.5693 17.5187 30.686 16.87 30.686 16.114C30.686 15.358 30.5693 14.7047 30.336 14.154C30.112 13.6033 29.7387 13.1833 29.216 12.894C28.7027 12.5953 28.0027 12.446 27.116 12.446H25.478V19.74ZM33.7818 21V14.056H35.1118L35.2378 15.372C35.4804 14.9147 35.8164 14.5553 36.2458 14.294C36.6844 14.0233 37.2118 13.888 37.8278 13.888V15.442H37.4218C37.0111 15.442 36.6424 15.512 36.3158 15.652C35.9984 15.7827 35.7418 16.0113 35.5458 16.338C35.3591 16.6553 35.2658 17.0987 35.2658 17.668V21H33.7818ZM41.4521 21.168C40.8641 21.168 40.3788 21.07 39.9961 20.874C39.6134 20.678 39.3288 20.4213 39.1421 20.104C38.9554 19.7773 38.8621 19.4227 38.8621 19.04C38.8621 18.368 39.1234 17.836 39.6461 17.444C40.1688 17.052 40.9154 16.856 41.8861 16.856H43.7061V16.73C43.7061 16.1887 43.5568 15.7827 43.2581 15.512C42.9688 15.2413 42.5908 15.106 42.1241 15.106C41.7134 15.106 41.3541 15.2087 41.0461 15.414C40.7474 15.61 40.5654 15.904 40.5001 16.296H39.0161C39.0628 15.792 39.2308 15.3627 39.5201 15.008C39.8188 14.644 40.1921 14.3687 40.6401 14.182C41.0974 13.986 41.5968 13.888 42.1381 13.888C43.1088 13.888 43.8601 14.1447 44.3921 14.658C44.9241 15.162 45.1901 15.8527 45.1901 16.73V21H43.9021L43.7761 19.81C43.5801 20.1927 43.2954 20.5147 42.9221 20.776C42.5488 21.0373 42.0588 21.168 41.4521 21.168ZM41.7461 19.964C42.1474 19.964 42.4834 19.8707 42.7541 19.684C43.0341 19.488 43.2488 19.2313 43.3981 18.914C43.5568 18.5967 43.6548 18.2467 43.6921 17.864H42.0401C41.4521 17.864 41.0321 17.9667 40.7801 18.172C40.5374 18.3773 40.4161 18.634 40.4161 18.942C40.4161 19.2593 40.5328 19.5113 40.7661 19.698C41.0088 19.8753 41.3354 19.964 41.7461 19.964ZM48.197 21L46.153 14.056H47.637L48.981 19.292L50.493 14.056H52.145L53.657 19.292L55.001 14.056H56.485L54.441 21H52.915L51.319 15.54L49.723 21H48.197ZM57.7635 21V11.2H59.2475V15.4L63.1115 11.2H64.9455L61.3195 15.106L65.0295 21H63.2235L60.2555 16.24L59.2475 17.332V21H57.7635ZM67.1061 12.74C66.8261 12.74 66.5928 12.656 66.4061 12.488C66.2288 12.3107 66.1401 12.0913 66.1401 11.83C66.1401 11.5687 66.2288 11.354 66.4061 11.186C66.5928 11.0087 66.8261 10.92 67.1061 10.92C67.3861 10.92 67.6148 11.0087 67.7921 11.186C67.9788 11.354 68.0721 11.5687 68.0721 11.83C68.0721 12.0913 67.9788 12.3107 67.7921 12.488C67.6148 12.656 67.3861 12.74 67.1061 12.74ZM66.3641 21V14.056H67.8481V21H66.3641ZM72.7191 21C72.0378 21 71.4965 20.8367 71.0951 20.51C70.6938 20.174 70.4931 19.5813 70.4931 18.732V15.302H69.3031V14.056H70.4931L70.6751 12.292H71.9771V14.056H73.9371V15.302H71.9771V18.732C71.9771 19.1147 72.0565 19.3807 72.2151 19.53C72.3831 19.67 72.6678 19.74 73.0691 19.74H73.8671V21H72.7191Z" fill="#1A2437"/>
<path d="M126.994 21V11.2H130.172C131.32 11.2 132.263 11.4007 133 11.802C133.747 12.2033 134.297 12.7727 134.652 13.51C135.016 14.238 135.198 15.106 135.198 16.114C135.198 17.1127 135.016 17.9807 134.652 18.718C134.297 19.446 133.747 20.0107 133 20.412C132.263 20.804 131.32 21 130.172 21H126.994ZM128.478 19.74H130.116C131.003 19.74 131.703 19.5953 132.216 19.306C132.739 19.0167 133.112 18.6013 133.336 18.06C133.569 17.5187 133.686 16.87 133.686 16.114C133.686 15.358 133.569 14.7047 133.336 14.154C133.112 13.6033 132.739 13.1833 132.216 12.894C131.703 12.5953 131.003 12.446 130.116 12.446H128.478V19.74ZM140.03 21.168C139.348 21.168 138.742 21.0187 138.21 20.72C137.687 20.412 137.276 19.9873 136.978 19.446C136.679 18.9047 136.53 18.2747 136.53 17.556C136.53 16.828 136.674 16.1887 136.964 15.638C137.262 15.0873 137.673 14.658 138.196 14.35C138.728 14.042 139.344 13.888 140.044 13.888C140.725 13.888 141.318 14.042 141.822 14.35C142.326 14.6487 142.718 15.05 142.998 15.554C143.278 16.058 143.418 16.6133 143.418 17.22C143.418 17.3133 143.413 17.416 143.404 17.528C143.404 17.6307 143.399 17.7473 143.39 17.878H137.986C138.032 18.55 138.252 19.0633 138.644 19.418C139.045 19.7633 139.507 19.936 140.03 19.936C140.45 19.936 140.8 19.8427 141.08 19.656C141.369 19.46 141.584 19.1987 141.724 18.872H143.208C143.021 19.5253 142.648 20.0713 142.088 20.51C141.537 20.9487 140.851 21.168 140.03 21.168ZM140.03 15.106C139.535 15.106 139.096 15.2553 138.714 15.554C138.331 15.8433 138.098 16.282 138.014 16.87H141.934C141.906 16.3287 141.714 15.8993 141.36 15.582C141.005 15.2647 140.562 15.106 140.03 15.106ZM147.73 21.168C146.852 21.168 146.129 20.9533 145.56 20.524C144.99 20.0947 144.664 19.5253 144.58 18.816H146.078C146.152 19.1333 146.33 19.4087 146.61 19.642C146.89 19.866 147.258 19.978 147.716 19.978C148.164 19.978 148.49 19.8847 148.696 19.698C148.901 19.5113 149.004 19.2967 149.004 19.054C149.004 18.6993 148.859 18.4613 148.57 18.34C148.29 18.2093 147.898 18.0927 147.394 17.99C147.002 17.906 146.61 17.794 146.218 17.654C145.835 17.514 145.513 17.318 145.252 17.066C145 16.8047 144.874 16.4547 144.874 16.016C144.874 15.4093 145.107 14.9053 145.574 14.504C146.04 14.0933 146.694 13.888 147.534 13.888C148.308 13.888 148.934 14.0747 149.41 14.448C149.895 14.8213 150.18 15.3487 150.264 16.03H148.836C148.789 15.7313 148.649 15.498 148.416 15.33C148.192 15.162 147.888 15.078 147.506 15.078C147.132 15.078 146.843 15.1573 146.638 15.316C146.432 15.4653 146.33 15.6613 146.33 15.904C146.33 16.1467 146.47 16.338 146.75 16.478C147.039 16.618 147.417 16.744 147.884 16.856C148.35 16.9587 148.78 17.08 149.172 17.22C149.573 17.3507 149.895 17.5467 150.138 17.808C150.38 18.0693 150.502 18.452 150.502 18.956C150.511 19.5907 150.264 20.118 149.76 20.538C149.265 20.958 148.588 21.168 147.73 21.168ZM152.962 12.74C152.682 12.74 152.448 12.656 152.262 12.488C152.084 12.3107 151.996 12.0913 151.996 11.83C151.996 11.5687 152.084 11.354 152.262 11.186C152.448 11.0087 152.682 10.92 152.962 10.92C153.242 10.92 153.47 11.0087 153.648 11.186C153.834 11.354 153.928 11.5687 153.928 11.83C153.928 12.0913 153.834 12.3107 153.648 12.488C153.47 12.656 153.242 12.74 152.962 12.74ZM152.22 21V14.056H153.704V21H152.22ZM158.505 18.872C158.141 18.872 157.805 18.83 157.497 18.746L156.895 19.334C156.997 19.3993 157.123 19.4553 157.273 19.502C157.422 19.5487 157.632 19.5907 157.903 19.628C158.173 19.6653 158.542 19.7027 159.009 19.74C159.933 19.824 160.6 20.048 161.011 20.412C161.421 20.7667 161.627 21.2427 161.627 21.84C161.627 22.2507 161.515 22.638 161.291 23.002C161.076 23.3753 160.735 23.674 160.269 23.898C159.811 24.1313 159.223 24.248 158.505 24.248C157.534 24.248 156.745 24.0613 156.139 23.688C155.541 23.324 155.243 22.7687 155.243 22.022C155.243 21.7327 155.317 21.4433 155.467 21.154C155.625 20.874 155.873 20.608 156.209 20.356C156.013 20.272 155.84 20.1833 155.691 20.09C155.551 19.9873 155.425 19.8847 155.313 19.782V19.446L156.517 18.214C155.975 17.7473 155.705 17.136 155.705 16.38C155.705 15.9227 155.812 15.5073 156.027 15.134C156.251 14.7513 156.573 14.448 156.993 14.224C157.413 14 157.917 13.888 158.505 13.888C158.897 13.888 159.261 13.944 159.597 14.056H162.187V15.036L160.955 15.106C161.179 15.4887 161.291 15.9133 161.291 16.38C161.291 16.8467 161.179 17.2667 160.955 17.64C160.74 18.0133 160.423 18.312 160.003 18.536C159.592 18.76 159.093 18.872 158.505 18.872ZM158.505 17.71C158.934 17.71 159.279 17.598 159.541 17.374C159.811 17.1407 159.947 16.814 159.947 16.394C159.947 15.9647 159.811 15.638 159.541 15.414C159.279 15.19 158.934 15.078 158.505 15.078C158.066 15.078 157.711 15.19 157.441 15.414C157.179 15.638 157.049 15.9647 157.049 16.394C157.049 16.814 157.179 17.1407 157.441 17.374C157.711 17.598 158.066 17.71 158.505 17.71ZM156.643 21.882C156.643 22.2833 156.82 22.582 157.175 22.778C157.529 22.9833 157.973 23.086 158.505 23.086C159.018 23.086 159.433 22.974 159.751 22.75C160.068 22.5353 160.227 22.246 160.227 21.882C160.227 21.6113 160.119 21.378 159.905 21.182C159.69 20.9953 159.284 20.8787 158.687 20.832C158.239 20.804 157.842 20.762 157.497 20.706C157.17 20.8833 156.946 21.0747 156.825 21.28C156.703 21.4853 156.643 21.686 156.643 21.882ZM163.51 21V14.056H164.826L164.938 15.274C165.153 14.8447 165.466 14.5087 165.876 14.266C166.296 14.014 166.777 13.888 167.318 13.888C168.158 13.888 168.816 14.1493 169.292 14.672C169.778 15.1947 170.02 15.974 170.02 17.01V21H168.55V17.164C168.55 15.82 168 15.148 166.898 15.148C166.348 15.148 165.89 15.344 165.526 15.736C165.172 16.128 164.994 16.688 164.994 17.416V21H163.51ZM175.058 21.168C174.339 21.168 173.709 21.042 173.168 20.79C172.627 20.538 172.202 20.1787 171.894 19.712C171.595 19.2453 171.441 18.69 171.432 18.046H173C173.009 18.5687 173.191 19.012 173.546 19.376C173.901 19.74 174.4 19.922 175.044 19.922C175.613 19.922 176.057 19.7867 176.374 19.516C176.701 19.236 176.864 18.8813 176.864 18.452C176.864 18.1067 176.785 17.8267 176.626 17.612C176.477 17.3973 176.267 17.22 175.996 17.08C175.735 16.94 175.431 16.814 175.086 16.702C174.741 16.59 174.377 16.4687 173.994 16.338C173.238 16.086 172.669 15.7593 172.286 15.358C171.913 14.9567 171.726 14.4293 171.726 13.776C171.717 13.2253 171.843 12.7447 172.104 12.334C172.375 11.9233 172.748 11.606 173.224 11.382C173.709 11.1487 174.274 11.032 174.918 11.032C175.553 11.032 176.108 11.1487 176.584 11.382C177.069 11.6153 177.447 11.942 177.718 12.362C177.989 12.7727 178.129 13.2533 178.138 13.804H176.57C176.57 13.552 176.505 13.314 176.374 13.09C176.243 12.8567 176.052 12.6653 175.8 12.516C175.548 12.3667 175.24 12.292 174.876 12.292C174.409 12.2827 174.022 12.3993 173.714 12.642C173.415 12.8847 173.266 13.2207 173.266 13.65C173.266 14.0327 173.378 14.3267 173.602 14.532C173.826 14.7373 174.134 14.91 174.526 15.05C174.918 15.1807 175.366 15.3347 175.87 15.512C176.355 15.6707 176.789 15.862 177.172 16.086C177.555 16.31 177.858 16.604 178.082 16.968C178.315 17.332 178.432 17.794 178.432 18.354C178.432 18.8487 178.306 19.3107 178.054 19.74C177.802 20.16 177.424 20.5053 176.92 20.776C176.416 21.0373 175.795 21.168 175.058 21.168ZM182.911 21C182.229 21 181.688 20.8367 181.287 20.51C180.885 20.174 180.685 19.5813 180.685 18.732V15.302H179.495V14.056H180.685L180.867 12.292H182.169V14.056H184.129V15.302H182.169V18.732C182.169 19.1147 182.248 19.3807 182.407 19.53C182.575 19.67 182.859 19.74 183.261 19.74H184.059V21H182.911ZM185.659 21V14.056H186.989L187.115 15.372C187.357 14.9147 187.693 14.5553 188.123 14.294C188.561 14.0233 189.089 13.888 189.705 13.888V15.442H189.299C188.888 15.442 188.519 15.512 188.193 15.652C187.875 15.7827 187.619 16.0113 187.423 16.338C187.236 16.6553 187.143 17.0987 187.143 17.668V21H185.659ZM191.817 12.74C191.537 12.74 191.304 12.656 191.117 12.488C190.94 12.3107 190.851 12.0913 190.851 11.83C190.851 11.5687 190.94 11.354 191.117 11.186C191.304 11.0087 191.537 10.92 191.817 10.92C192.097 10.92 192.326 11.0087 192.503 11.186C192.69 11.354 192.783 11.5687 192.783 11.83C192.783 12.0913 192.69 12.3107 192.503 12.488C192.326 12.656 192.097 12.74 191.817 12.74ZM191.075 21V14.056H192.559V21H191.075ZM194.518 24.08V14.056H195.848L196.002 15.134C196.226 14.8073 196.534 14.518 196.926 14.266C197.318 14.014 197.822 13.888 198.438 13.888C199.11 13.888 199.703 14.0467 200.216 14.364C200.729 14.6813 201.131 15.1153 201.42 15.666C201.719 16.2167 201.868 16.842 201.868 17.542C201.868 18.242 201.719 18.8673 201.42 19.418C201.131 19.9593 200.729 20.3887 200.216 20.706C199.703 21.014 199.105 21.168 198.424 21.168C197.883 21.168 197.402 21.0607 196.982 20.846C196.571 20.6313 196.245 20.328 196.002 19.936V24.08H194.518ZM198.172 19.88C198.807 19.88 199.329 19.6653 199.74 19.236C200.151 18.7973 200.356 18.228 200.356 17.528C200.356 17.0707 200.263 16.6647 200.076 16.31C199.889 15.9553 199.633 15.68 199.306 15.484C198.979 15.2787 198.601 15.176 198.172 15.176C197.537 15.176 197.015 15.3953 196.604 15.834C196.203 16.2727 196.002 16.8373 196.002 17.528C196.002 18.228 196.203 18.7973 196.604 19.236C197.015 19.6653 197.537 19.88 198.172 19.88ZM206.721 21.168C206.04 21.168 205.433 21.0187 204.901 20.72C204.378 20.412 203.968 19.9873 203.669 19.446C203.37 18.9047 203.221 18.2747 203.221 17.556C203.221 16.828 203.366 16.1887 203.655 15.638C203.954 15.0873 204.364 14.658 204.887 14.35C205.419 14.042 206.035 13.888 206.735 13.888C207.416 13.888 208.009 14.042 208.513 14.35C209.017 14.6487 209.409 15.05 209.689 15.554C209.969 16.058 210.109 16.6133 210.109 17.22C210.109 17.3133 210.104 17.416 210.095 17.528C210.095 17.6307 210.09 17.7473 210.081 17.878H204.677C204.724 18.55 204.943 19.0633 205.335 19.418C205.736 19.7633 206.198 19.936 206.721 19.936C207.141 19.936 207.491 19.8427 207.771 19.656C208.06 19.46 208.275 19.1987 208.415 18.872H209.899C209.712 19.5253 209.339 20.0713 208.779 20.51C208.228 20.9487 207.542 21.168 206.721 21.168ZM206.721 15.106C206.226 15.106 205.788 15.2553 205.405 15.554C205.022 15.8433 204.789 16.282 204.705 16.87H208.625C208.597 16.3287 208.406 15.8993 208.051 15.582C207.696 15.2647 207.253 15.106 206.721 15.106Z" fill="#1A2437"/>
<path d="M276.25 21.168C275.326 21.168 274.519 20.958 273.828 20.538C273.137 20.118 272.601 19.53 272.218 18.774C271.835 18.018 271.644 17.136 271.644 16.128C271.644 15.1293 271.84 14.2473 272.232 13.482C272.624 12.7167 273.179 12.1193 273.898 11.69C274.626 11.2513 275.485 11.032 276.474 11.032C277.594 11.032 278.527 11.3027 279.274 11.844C280.021 12.3853 280.506 13.132 280.73 14.084H279.05C278.901 13.5613 278.607 13.1507 278.168 12.852C277.729 12.5533 277.165 12.404 276.474 12.404C275.447 12.404 274.64 12.7353 274.052 13.398C273.464 14.0607 273.17 14.9753 273.17 16.142C273.17 17.3087 273.459 18.2187 274.038 18.872C274.617 19.5253 275.387 19.852 276.348 19.852C277.319 19.852 278.047 19.5767 278.532 19.026C279.027 18.4753 279.316 17.7427 279.4 16.828H276.74V15.68H280.898V21H279.54L279.414 19.558C279.087 20.0713 278.677 20.468 278.182 20.748C277.687 21.028 277.043 21.168 276.25 21.168ZM282.643 21V10.92H284.127V21H282.643ZM286.818 24.08L288.484 20.426H288.078L285.334 14.056H286.944L289.072 19.194L291.298 14.056H292.866L288.386 24.08H286.818ZM294.086 24.08V14.056H295.416L295.57 15.134C295.794 14.8073 296.102 14.518 296.494 14.266C296.886 14.014 297.39 13.888 298.006 13.888C298.678 13.888 299.271 14.0467 299.784 14.364C300.298 14.6813 300.699 15.1153 300.988 15.666C301.287 16.2167 301.436 16.842 301.436 17.542C301.436 18.242 301.287 18.8673 300.988 19.418C300.699 19.9593 300.298 20.3887 299.784 20.706C299.271 21.014 298.674 21.168 297.992 21.168C297.451 21.168 296.97 21.0607 296.55 20.846C296.14 20.6313 295.813 20.328 295.57 19.936V24.08H294.086ZM297.74 19.88C298.375 19.88 298.898 19.6653 299.308 19.236C299.719 18.7973 299.924 18.228 299.924 17.528C299.924 17.0707 299.831 16.6647 299.644 16.31C299.458 15.9553 299.201 15.68 298.874 15.484C298.548 15.2787 298.17 15.176 297.74 15.176C297.106 15.176 296.583 15.3953 296.172 15.834C295.771 16.2727 295.57 16.8373 295.57 17.528C295.57 18.228 295.771 18.7973 296.172 19.236C296.583 19.6653 297.106 19.88 297.74 19.88ZM303.042 21V10.92H304.526V15.176C304.759 14.7747 305.081 14.462 305.492 14.238C305.912 14.0047 306.374 13.888 306.878 13.888C307.708 13.888 308.362 14.1493 308.838 14.672C309.314 15.1947 309.552 15.974 309.552 17.01V21H308.082V17.164C308.082 15.82 307.545 15.148 306.472 15.148C305.912 15.148 305.445 15.344 305.072 15.736C304.708 16.128 304.526 16.688 304.526 17.416V21H303.042ZM311.893 24.08L313.559 20.426H313.153L310.409 14.056H312.019L314.147 19.194L316.373 14.056H317.941L313.461 24.08H311.893ZM318.71 21.084C318.43 21.084 318.196 20.9953 318.01 20.818C317.832 20.6313 317.744 20.412 317.744 20.16C317.744 19.8987 317.832 19.6793 318.01 19.502C318.196 19.3153 318.43 19.222 318.71 19.222C318.99 19.222 319.218 19.3153 319.396 19.502C319.573 19.6793 319.662 19.8987 319.662 20.16C319.662 20.412 319.573 20.6313 319.396 20.818C319.218 20.9953 318.99 21.084 318.71 21.084ZM321.997 12.74C321.717 12.74 321.483 12.656 321.297 12.488C321.119 12.3107 321.031 12.0913 321.031 11.83C321.031 11.5687 321.119 11.354 321.297 11.186C321.483 11.0087 321.717 10.92 321.997 10.92C322.277 10.92 322.505 11.0087 322.683 11.186C322.869 11.354 322.963 11.5687 322.963 11.83C322.963 12.0913 322.869 12.3107 322.683 12.488C322.505 12.656 322.277 12.74 321.997 12.74ZM321.255 21V14.056H322.739V21H321.255ZM327.946 21.168C327.283 21.168 326.686 21.0187 326.154 20.72C325.631 20.412 325.216 19.9873 324.908 19.446C324.6 18.8953 324.446 18.256 324.446 17.528C324.446 16.8 324.6 16.1653 324.908 15.624C325.225 15.0733 325.65 14.6487 326.182 14.35C326.714 14.042 327.306 13.888 327.96 13.888C328.622 13.888 329.215 14.042 329.738 14.35C330.27 14.6487 330.69 15.0733 330.998 15.624C331.315 16.1653 331.474 16.8 331.474 17.528C331.474 18.256 331.315 18.8953 330.998 19.446C330.69 19.9873 330.27 20.412 329.738 20.72C329.206 21.0187 328.608 21.168 327.946 21.168ZM327.946 19.894C328.3 19.894 328.627 19.8053 328.926 19.628C329.234 19.4507 329.481 19.1893 329.668 18.844C329.854 18.4893 329.948 18.0507 329.948 17.528C329.948 17.0053 329.854 16.5713 329.668 16.226C329.49 15.8713 329.248 15.6053 328.94 15.428C328.641 15.2507 328.314 15.162 327.96 15.162C327.605 15.162 327.274 15.2507 326.966 15.428C326.667 15.6053 326.424 15.8713 326.238 16.226C326.051 16.5713 325.958 17.0053 325.958 17.528C325.958 18.0507 326.051 18.4893 326.238 18.844C326.424 19.1893 326.667 19.4507 326.966 19.628C327.264 19.8053 327.591 19.894 327.946 19.894Z" fill="white"/>
<path d="M391.994 21V11.2H395.172C396.32 11.2 397.263 11.4007 398 11.802C398.747 12.2033 399.297 12.7727 399.652 13.51C400.016 14.238 400.198 15.106 400.198 16.114C400.198 17.1127 400.016 17.9807 399.652 18.718C399.297 19.446 398.747 20.0107 398 20.412C397.263 20.804 396.32 21 395.172 21H391.994ZM393.478 19.74H395.116C396.003 19.74 396.703 19.5953 397.216 19.306C397.739 19.0167 398.112 18.6013 398.336 18.06C398.569 17.5187 398.686 16.87 398.686 16.114C398.686 15.358 398.569 14.7047 398.336 14.154C398.112 13.6033 397.739 13.1833 397.216 12.894C396.703 12.5953 396.003 12.446 395.116 12.446H393.478V19.74ZM405.03 21.168C404.348 21.168 403.742 21.0187 403.21 20.72C402.687 20.412 402.276 19.9873 401.978 19.446C401.679 18.9047 401.53 18.2747 401.53 17.556C401.53 16.828 401.674 16.1887 401.964 15.638C402.262 15.0873 402.673 14.658 403.196 14.35C403.728 14.042 404.344 13.888 405.044 13.888C405.725 13.888 406.318 14.042 406.822 14.35C407.326 14.6487 407.718 15.05 407.998 15.554C408.278 16.058 408.418 16.6133 408.418 17.22C408.418 17.3133 408.413 17.416 408.404 17.528C408.404 17.6307 408.399 17.7473 408.39 17.878H402.986C403.032 18.55 403.252 19.0633 403.644 19.418C404.045 19.7633 404.507 19.936 405.03 19.936C405.45 19.936 405.8 19.8427 406.08 19.656C406.369 19.46 406.584 19.1987 406.724 18.872H408.208C408.021 19.5253 407.648 20.0713 407.088 20.51C406.537 20.9487 405.851 21.168 405.03 21.168ZM405.03 15.106C404.535 15.106 404.096 15.2553 403.714 15.554C403.331 15.8433 403.098 16.282 403.014 16.87H406.934C406.906 16.3287 406.714 15.8993 406.36 15.582C406.005 15.2647 405.562 15.106 405.03 15.106ZM412.73 21.168C411.852 21.168 411.129 20.9533 410.56 20.524C409.99 20.0947 409.664 19.5253 409.58 18.816H411.078C411.152 19.1333 411.33 19.4087 411.61 19.642C411.89 19.866 412.258 19.978 412.716 19.978C413.164 19.978 413.49 19.8847 413.696 19.698C413.901 19.5113 414.004 19.2967 414.004 19.054C414.004 18.6993 413.859 18.4613 413.57 18.34C413.29 18.2093 412.898 18.0927 412.394 17.99C412.002 17.906 411.61 17.794 411.218 17.654C410.835 17.514 410.513 17.318 410.252 17.066C410 16.8047 409.874 16.4547 409.874 16.016C409.874 15.4093 410.107 14.9053 410.574 14.504C411.04 14.0933 411.694 13.888 412.534 13.888C413.308 13.888 413.934 14.0747 414.41 14.448C414.895 14.8213 415.18 15.3487 415.264 16.03H413.836C413.789 15.7313 413.649 15.498 413.416 15.33C413.192 15.162 412.888 15.078 412.506 15.078C412.132 15.078 411.843 15.1573 411.638 15.316C411.432 15.4653 411.33 15.6613 411.33 15.904C411.33 16.1467 411.47 16.338 411.75 16.478C412.039 16.618 412.417 16.744 412.884 16.856C413.35 16.9587 413.78 17.08 414.172 17.22C414.573 17.3507 414.895 17.5467 415.138 17.808C415.38 18.0693 415.502 18.452 415.502 18.956C415.511 19.5907 415.264 20.118 414.76 20.538C414.265 20.958 413.588 21.168 412.73 21.168ZM417.962 12.74C417.682 12.74 417.448 12.656 417.262 12.488C417.084 12.3107 416.996 12.0913 416.996 11.83C416.996 11.5687 417.084 11.354 417.262 11.186C417.448 11.0087 417.682 10.92 417.962 10.92C418.242 10.92 418.47 11.0087 418.648 11.186C418.834 11.354 418.928 11.5687 418.928 11.83C418.928 12.0913 418.834 12.3107 418.648 12.488C418.47 12.656 418.242 12.74 417.962 12.74ZM417.22 21V14.056H418.704V21H417.22ZM423.505 18.872C423.141 18.872 422.805 18.83 422.497 18.746L421.895 19.334C421.997 19.3993 422.123 19.4553 422.273 19.502C422.422 19.5487 422.632 19.5907 422.903 19.628C423.173 19.6653 423.542 19.7027 424.009 19.74C424.933 19.824 425.6 20.048 426.011 20.412C426.421 20.7667 426.627 21.2427 426.627 21.84C426.627 22.2507 426.515 22.638 426.291 23.002C426.076 23.3753 425.735 23.674 425.269 23.898C424.811 24.1313 424.223 24.248 423.505 24.248C422.534 24.248 421.745 24.0613 421.139 23.688C420.541 23.324 420.243 22.7687 420.243 22.022C420.243 21.7327 420.317 21.4433 420.467 21.154C420.625 20.874 420.873 20.608 421.209 20.356C421.013 20.272 420.84 20.1833 420.691 20.09C420.551 19.9873 420.425 19.8847 420.313 19.782V19.446L421.517 18.214C420.975 17.7473 420.705 17.136 420.705 16.38C420.705 15.9227 420.812 15.5073 421.027 15.134C421.251 14.7513 421.573 14.448 421.993 14.224C422.413 14 422.917 13.888 423.505 13.888C423.897 13.888 424.261 13.944 424.597 14.056H427.187V15.036L425.955 15.106C426.179 15.4887 426.291 15.9133 426.291 16.38C426.291 16.8467 426.179 17.2667 425.955 17.64C425.74 18.0133 425.423 18.312 425.003 18.536C424.592 18.76 424.093 18.872 423.505 18.872ZM423.505 17.71C423.934 17.71 424.279 17.598 424.541 17.374C424.811 17.1407 424.947 16.814 424.947 16.394C424.947 15.9647 424.811 15.638 424.541 15.414C424.279 15.19 423.934 15.078 423.505 15.078C423.066 15.078 422.711 15.19 422.441 15.414C422.179 15.638 422.049 15.9647 422.049 16.394C422.049 16.814 422.179 17.1407 422.441 17.374C422.711 17.598 423.066 17.71 423.505 17.71ZM421.643 21.882C421.643 22.2833 421.82 22.582 422.175 22.778C422.529 22.9833 422.973 23.086 423.505 23.086C424.018 23.086 424.433 22.974 424.751 22.75C425.068 22.5353 425.227 22.246 425.227 21.882C425.227 21.6113 425.119 21.378 424.905 21.182C424.69 20.9953 424.284 20.8787 423.687 20.832C423.239 20.804 422.842 20.762 422.497 20.706C422.17 20.8833 421.946 21.0747 421.825 21.28C421.703 21.4853 421.643 21.686 421.643 21.882ZM428.51 21V14.056H429.826L429.938 15.274C430.153 14.8447 430.466 14.5087 430.876 14.266C431.296 14.014 431.777 13.888 432.318 13.888C433.158 13.888 433.816 14.1493 434.292 14.672C434.778 15.1947 435.02 15.974 435.02 17.01V21H433.55V17.164C433.55 15.82 433 15.148 431.898 15.148C431.348 15.148 430.89 15.344 430.526 15.736C430.172 16.128 429.994 16.688 429.994 17.416V21H428.51ZM438.605 21L436.001 14.056H437.555L439.487 19.586L441.419 14.056H442.959L440.369 21H438.605ZM446.134 21.168C445.546 21.168 445.06 21.07 444.678 20.874C444.295 20.678 444.01 20.4213 443.824 20.104C443.637 19.7773 443.544 19.4227 443.544 19.04C443.544 18.368 443.805 17.836 444.328 17.444C444.85 17.052 445.597 16.856 446.568 16.856H448.388V16.73C448.388 16.1887 448.238 15.7827 447.94 15.512C447.65 15.2413 447.272 15.106 446.806 15.106C446.395 15.106 446.036 15.2087 445.728 15.414C445.429 15.61 445.247 15.904 445.182 16.296H443.698C443.744 15.792 443.912 15.3627 444.202 15.008C444.5 14.644 444.874 14.3687 445.322 14.182C445.779 13.986 446.278 13.888 446.82 13.888C447.79 13.888 448.542 14.1447 449.074 14.658C449.606 15.162 449.872 15.8527 449.872 16.73V21H448.584L448.458 19.81C448.262 20.1927 447.977 20.5147 447.604 20.776C447.23 21.0373 446.74 21.168 446.134 21.168ZM446.428 19.964C446.829 19.964 447.165 19.8707 447.436 19.684C447.716 19.488 447.93 19.2313 448.08 18.914C448.238 18.5967 448.336 18.2467 448.374 17.864H446.722C446.134 17.864 445.714 17.9667 445.462 18.172C445.219 18.3773 445.098 18.634 445.098 18.942C445.098 19.2593 445.214 19.5113 445.448 19.698C445.69 19.8753 446.017 19.964 446.428 19.964ZM451.602 21V10.92H453.086V21H451.602ZM454.965 21V10.92H456.449V21H454.965ZM461.577 21.168C460.895 21.168 460.289 21.0187 459.757 20.72C459.234 20.412 458.823 19.9873 458.525 19.446C458.226 18.9047 458.077 18.2747 458.077 17.556C458.077 16.828 458.221 16.1887 458.511 15.638C458.809 15.0873 459.22 14.658 459.743 14.35C460.275 14.042 460.891 13.888 461.591 13.888C462.272 13.888 462.865 14.042 463.369 14.35C463.873 14.6487 464.265 15.05 464.545 15.554C464.825 16.058 464.965 16.6133 464.965 17.22C464.965 17.3133 464.96 17.416 464.951 17.528C464.951 17.6307 464.946 17.7473 464.937 17.878H459.533C459.579 18.55 459.799 19.0633 460.191 19.418C460.592 19.7633 461.054 19.936 461.577 19.936C461.997 19.936 462.347 19.8427 462.627 19.656C462.916 19.46 463.131 19.1987 463.271 18.872H464.755C464.568 19.5253 464.195 20.0713 463.635 20.51C463.084 20.9487 462.398 21.168 461.577 21.168ZM461.577 15.106C461.082 15.106 460.643 15.2553 460.261 15.554C459.878 15.8433 459.645 16.282 459.561 16.87H463.481C463.453 16.3287 463.261 15.8993 462.907 15.582C462.552 15.2647 462.109 15.106 461.577 15.106ZM467.002 24.08L468.668 20.426H468.262L465.518 14.056H467.128L469.256 19.194L471.482 14.056H473.05L468.57 24.08H467.002ZM473.819 21.084C473.539 21.084 473.306 20.9953 473.119 20.818C472.942 20.6313 472.853 20.412 472.853 20.16C472.853 19.8987 472.942 19.6793 473.119 19.502C473.306 19.3153 473.539 19.222 473.819 19.222C474.099 19.222 474.328 19.3153 474.505 19.502C474.682 19.6793 474.771 19.8987 474.771 20.16C474.771 20.412 474.682 20.6313 474.505 20.818C474.328 20.9953 474.099 21.084 473.819 21.084ZM479.556 21.168C478.875 21.168 478.263 21.014 477.722 20.706C477.19 20.398 476.77 19.9733 476.462 19.432C476.163 18.8813 476.014 18.2467 476.014 17.528C476.014 16.8093 476.163 16.1793 476.462 15.638C476.77 15.0873 477.19 14.658 477.722 14.35C478.263 14.042 478.875 13.888 479.556 13.888C480.415 13.888 481.133 14.112 481.712 14.56C482.3 15.008 482.678 15.6147 482.846 16.38H481.292C481.199 15.9973 480.993 15.6987 480.676 15.484C480.359 15.2693 479.985 15.162 479.556 15.162C479.192 15.162 478.856 15.2553 478.548 15.442C478.24 15.6193 477.993 15.8853 477.806 16.24C477.619 16.5853 477.526 17.0147 477.526 17.528C477.526 18.0413 477.619 18.4753 477.806 18.83C477.993 19.1753 478.24 19.4413 478.548 19.628C478.856 19.8147 479.192 19.908 479.556 19.908C479.985 19.908 480.359 19.8007 480.676 19.586C480.993 19.3713 481.199 19.068 481.292 18.676H482.846C482.687 19.4227 482.314 20.0247 481.726 20.482C481.138 20.9393 480.415 21.168 479.556 21.168ZM484.456 21V10.92H485.94V21H484.456ZM494.203 14.056V21H492.887L492.775 19.782C492.56 20.2113 492.243 20.552 491.823 20.804C491.412 21.0467 490.936 21.168 490.395 21.168C489.555 21.168 488.892 20.9067 488.407 20.384C487.931 19.8613 487.693 19.082 487.693 18.046V14.056H489.163V17.892C489.163 19.236 489.714 19.908 490.815 19.908C491.366 19.908 491.818 19.712 492.173 19.32C492.537 18.928 492.719 18.368 492.719 17.64V14.056H494.203ZM499.983 21.168C499.441 21.168 498.961 21.0607 498.541 20.846C498.13 20.6313 497.803 20.328 497.561 19.936L497.407 21H496.077V10.92H497.561V15.134C497.785 14.8073 498.093 14.518 498.485 14.266C498.877 14.014 499.381 13.888 499.997 13.888C500.669 13.888 501.261 14.0467 501.775 14.364C502.288 14.6813 502.689 15.1153 502.979 15.666C503.277 16.2167 503.427 16.842 503.427 17.542C503.427 18.242 503.277 18.8673 502.979 19.418C502.689 19.9593 502.288 20.3887 501.775 20.706C501.261 21.014 500.664 21.168 499.983 21.168ZM499.731 19.88C500.365 19.88 500.888 19.6653 501.299 19.236C501.709 18.7973 501.915 18.228 501.915 17.528C501.915 17.0707 501.821 16.6647 501.635 16.31C501.448 15.9553 501.191 15.68 500.865 15.484C500.538 15.2787 500.16 15.176 499.731 15.176C499.096 15.176 498.573 15.3953 498.163 15.834C497.761 16.2727 497.561 16.8373 497.561 17.528C497.561 18.228 497.761 18.7973 498.163 19.236C498.573 19.6653 499.096 19.88 499.731 19.88Z" fill="#1A2437"/>
<path d="M555.994 21V11.2H557.478L562.392 18.578V11.2H563.876V21H562.392L557.478 13.622V21H555.994ZM569.057 21.168C568.376 21.168 567.769 21.0187 567.237 20.72C566.714 20.412 566.304 19.9873 566.005 19.446C565.706 18.9047 565.557 18.2747 565.557 17.556C565.557 16.828 565.702 16.1887 565.991 15.638C566.29 15.0873 566.7 14.658 567.223 14.35C567.755 14.042 568.371 13.888 569.071 13.888C569.752 13.888 570.345 14.042 570.849 14.35C571.353 14.6487 571.745 15.05 572.025 15.554C572.305 16.058 572.445 16.6133 572.445 17.22C572.445 17.3133 572.44 17.416 572.431 17.528C572.431 17.6307 572.426 17.7473 572.417 17.878H567.013C567.06 18.55 567.279 19.0633 567.671 19.418C568.072 19.7633 568.534 19.936 569.057 19.936C569.477 19.936 569.827 19.8427 570.107 19.656C570.396 19.46 570.611 19.1987 570.751 18.872H572.235C572.048 19.5253 571.675 20.0713 571.115 20.51C570.564 20.9487 569.878 21.168 569.057 21.168ZM569.057 15.106C568.562 15.106 568.124 15.2553 567.741 15.554C567.358 15.8433 567.125 16.282 567.041 16.87H570.961C570.933 16.3287 570.742 15.8993 570.387 15.582C570.032 15.2647 569.589 15.106 569.057 15.106ZM580.369 14.056V21H579.053L578.941 19.782C578.726 20.2113 578.409 20.552 577.989 20.804C577.578 21.0467 577.102 21.168 576.561 21.168C575.721 21.168 575.058 20.9067 574.573 20.384C574.097 19.8613 573.859 19.082 573.859 18.046V14.056H575.329V17.892C575.329 19.236 575.88 19.908 576.981 19.908C577.532 19.908 577.984 19.712 578.339 19.32C578.703 18.928 578.885 18.368 578.885 17.64V14.056H580.369ZM586.149 21.168C585.607 21.168 585.127 21.0607 584.707 20.846C584.296 20.6313 583.969 20.328 583.727 19.936L583.573 21H582.243V10.92H583.727V15.134C583.951 14.8073 584.259 14.518 584.651 14.266C585.043 14.014 585.547 13.888 586.163 13.888C586.835 13.888 587.427 14.0467 587.941 14.364C588.454 14.6813 588.855 15.1153 589.145 15.666C589.443 16.2167 589.593 16.842 589.593 17.542C589.593 18.242 589.443 18.8673 589.145 19.418C588.855 19.9593 588.454 20.3887 587.941 20.706C587.427 21.014 586.83 21.168 586.149 21.168ZM585.897 19.88C586.531 19.88 587.054 19.6653 587.465 19.236C587.875 18.7973 588.081 18.228 588.081 17.528C588.081 17.0707 587.987 16.6647 587.801 16.31C587.614 15.9553 587.357 15.68 587.031 15.484C586.704 15.2787 586.326 15.176 585.897 15.176C585.262 15.176 584.739 15.3953 584.329 15.834C583.927 16.2727 583.727 16.8373 583.727 17.528C583.727 18.228 583.927 18.7973 584.329 19.236C584.739 19.6653 585.262 19.88 585.897 19.88ZM594.446 21.168C593.764 21.168 593.158 21.0187 592.626 20.72C592.103 20.412 591.692 19.9873 591.394 19.446C591.095 18.9047 590.946 18.2747 590.946 17.556C590.946 16.828 591.09 16.1887 591.38 15.638C591.678 15.0873 592.089 14.658 592.612 14.35C593.144 14.042 593.76 13.888 594.46 13.888C595.141 13.888 595.734 14.042 596.238 14.35C596.742 14.6487 597.134 15.05 597.414 15.554C597.694 16.058 597.834 16.6133 597.834 17.22C597.834 17.3133 597.829 17.416 597.82 17.528C597.82 17.6307 597.815 17.7473 597.806 17.878H592.402C592.448 18.55 592.668 19.0633 593.06 19.418C593.461 19.7633 593.923 19.936 594.446 19.936C594.866 19.936 595.216 19.8427 595.496 19.656C595.785 19.46 596 19.1987 596.14 18.872H597.624C597.437 19.5253 597.064 20.0713 596.504 20.51C595.953 20.9487 595.267 21.168 594.446 21.168ZM594.446 15.106C593.951 15.106 593.512 15.2553 593.13 15.554C592.747 15.8433 592.514 16.282 592.43 16.87H596.35C596.322 16.3287 596.13 15.8993 595.776 15.582C595.421 15.2647 594.978 15.106 594.446 15.106ZM599.374 21V10.92H600.858V21H599.374Z" fill="#1A2437"/>
<path d="M12 460L106.095 360.829L204.074 387.253L301.544 336.961L405.647 380.221L502.096 360.829L598.545 330.994L692 242L803.69 376.385L902.69 336.961L996.587 348.895L1116 227" stroke="#FF9900" stroke-width="3"/>
<circle cx="691.5" cy="242.5" r="8" fill="#FF9900" stroke="white" stroke-width="5"/>
<g filter="url(#filter0_d)">
<rect x="628" y="165" width="128" height="59" rx="6" fill="#0C172E"/>
</g>
<rect width="9.58117" height="9.51965" rx="2" transform="matrix(0.695818 -0.718218 0.695818 0.718218 685.355 222.244)" fill="#0C172E"/>
<path d="M650 202.6C651.894 202.6 653.429 201.123 653.429 199.3C653.429 197.477 651.894 196 650 196C648.106 196 646.571 197.477 646.571 199.3C646.571 201.123 648.106 202.6 650 202.6ZM652.4 203.425H651.953C651.358 203.688 650.696 203.837 650 203.837C649.304 203.837 648.645 203.688 648.047 203.425H647.6C645.612 203.425 644 204.977 644 206.89V207.962C644 208.646 644.576 209.2 645.286 209.2H654.714C655.424 209.2 656 208.646 656 207.962V206.89C656 204.977 654.387 203.425 652.4 203.425Z" fill="#BDBDBD"/>
<path d="M651.98 187L649.256 178.624H647L644.24 187H646.088L646.688 185.008H649.484L650.084 187H651.98ZM649.04 183.46H647.12L648.044 180.28H648.104L649.04 183.46ZM653.038 178.624V183.568C653.038 186.04 653.926 187.144 656.326 187.144C658.726 187.144 659.614 186.04 659.614 183.568V178.624H657.838V183.76C657.838 184.936 657.406 185.524 656.326 185.524C655.246 185.524 654.814 184.936 654.814 183.76V178.624H653.038ZM666.974 187H668.51V182.332H665.21V183.856H666.77V184.276C666.77 185.092 666.038 185.524 665.126 185.524C663.998 185.524 663.266 184.876 663.266 183.484V182.14C663.266 180.748 663.998 180.1 665.126 180.1C666.098 180.1 666.614 180.628 666.866 181.276L668.354 180.424C667.73 179.14 666.614 178.48 665.126 178.48C662.858 178.48 661.334 180.028 661.334 182.848C661.334 185.656 662.846 187.144 664.766 187.144C666.026 187.144 666.794 186.508 666.914 185.668H666.974V187ZM674.451 181.72C675.171 181.72 675.483 181.348 675.483 180.856V180.556C675.483 180.136 675.255 179.776 674.739 179.68C674.931 179.08 675.315 178.6 675.843 178.12H674.727C673.995 178.684 673.419 179.668 673.419 180.604V180.856C673.419 181.348 673.731 181.72 674.451 181.72ZM683.125 185.488H679.165L680.725 184.264C681.925 183.316 682.957 182.44 682.957 181C682.957 179.548 681.913 178.48 680.101 178.48C678.361 178.48 677.389 179.452 677.017 180.616L678.589 181.216C678.757 180.58 679.141 180.04 679.933 180.04C680.473 180.04 681.037 180.364 681.037 181V181.168C681.037 181.876 680.713 182.344 679.777 183.148L677.197 185.356V187H683.125V185.488ZM687.548 187.144C689.744 187.144 690.776 185.548 690.776 182.812C690.776 180.076 689.744 178.48 687.548 178.48C685.352 178.48 684.32 180.076 684.32 182.812C684.32 185.548 685.352 187.144 687.548 187.144ZM687.548 185.62C686.588 185.62 686.276 184.876 686.276 183.604V182.02C686.276 180.748 686.588 180.004 687.548 180.004C688.508 180.004 688.82 180.748 688.82 182.02V183.604C688.82 184.876 688.508 185.62 687.548 185.62Z" fill="white"/>
<path d="M665.452 211V208.91H669.258V198.35L665.628 199.01V197.118L670.16 195.6H671.59V208.91H675.682V211H665.452ZM678.731 211V209.152C680.242 207.949 681.562 206.842 682.691 205.83C683.835 204.818 684.73 203.843 685.375 202.904C686.021 201.965 686.343 201.012 686.343 200.044C686.343 199.237 686.116 198.607 685.661 198.152C685.207 197.683 684.591 197.448 683.813 197.448C682.919 197.448 682.229 197.734 681.745 198.306C681.261 198.863 681.019 199.531 681.019 200.308H678.753C678.768 199.223 678.995 198.313 679.435 197.58C679.875 196.847 680.469 196.289 681.217 195.908C681.98 195.527 682.845 195.336 683.813 195.336C685.383 195.336 686.593 195.761 687.443 196.612C688.294 197.448 688.719 198.57 688.719 199.978C688.719 200.873 688.521 201.738 688.125 202.574C687.744 203.395 687.238 204.18 686.607 204.928C685.977 205.676 685.273 206.387 684.495 207.062C683.733 207.737 682.963 208.382 682.185 208.998H689.137V211H678.731ZM696.983 211.132C696.44 211.132 695.978 210.956 695.597 210.604C695.215 210.237 695.025 209.797 695.025 209.284C695.025 208.771 695.215 208.338 695.597 207.986C695.978 207.634 696.44 207.458 696.983 207.458C697.54 207.458 698.002 207.634 698.369 207.986C698.75 208.338 698.941 208.771 698.941 209.284C698.941 209.797 698.75 210.237 698.369 210.604C698.002 210.956 697.54 211.132 696.983 211.132ZM709.888 211.264C708.92 211.264 708.07 211.073 707.336 210.692C706.603 210.311 706.016 209.797 705.576 209.152C705.136 208.492 704.872 207.751 704.784 206.93H707.028C707.175 207.619 707.498 208.162 707.996 208.558C708.495 208.954 709.126 209.152 709.888 209.152C710.959 209.152 711.824 208.69 712.484 207.766C713.144 206.827 713.526 205.368 713.628 203.388H713.474C713.108 204.004 712.638 204.51 712.066 204.906C711.494 205.302 710.68 205.5 709.624 205.5C708.744 205.5 707.938 205.295 707.204 204.884C706.471 204.459 705.884 203.872 705.444 203.124C705.004 202.376 704.784 201.511 704.784 200.528C704.784 199.589 704.997 198.731 705.422 197.954C705.848 197.162 706.442 196.531 707.204 196.062C707.982 195.578 708.898 195.336 709.954 195.336C711.304 195.336 712.411 195.644 713.276 196.26C714.142 196.861 714.78 197.719 715.19 198.834C715.616 199.934 715.828 201.239 715.828 202.75C715.828 204.451 715.594 205.94 715.124 207.216C714.67 208.492 713.995 209.489 713.1 210.208C712.22 210.912 711.15 211.264 709.888 211.264ZM710.108 203.41C711.018 203.41 711.744 203.131 712.286 202.574C712.844 202.002 713.122 201.291 713.122 200.44C713.122 199.575 712.844 198.863 712.286 198.306C711.744 197.734 711.018 197.448 710.108 197.448C709.199 197.448 708.466 197.727 707.908 198.284C707.366 198.841 707.094 199.553 707.094 200.418C707.094 201.283 707.366 202.002 707.908 202.574C708.466 203.131 709.199 203.41 710.108 203.41ZM725.06 211V207.678H717.756V205.852L724.642 195.6H727.392V205.566H729.394V207.678H727.392V211H725.06ZM720.352 205.566H725.192V198.218L720.352 205.566ZM736.667 211.264C735.655 211.264 734.738 211.073 733.917 210.692C733.096 210.311 732.443 209.753 731.959 209.02C731.475 208.272 731.211 207.37 731.167 206.314H733.499C733.543 207.121 733.836 207.788 734.379 208.316C734.936 208.844 735.699 209.108 736.667 209.108C737.62 209.108 738.368 208.873 738.911 208.404C739.454 207.935 739.725 207.289 739.725 206.468C739.725 205.559 739.395 204.891 738.735 204.466C738.075 204.041 737.268 203.828 736.315 203.828H734.951V201.76H736.117C736.982 201.76 737.694 201.584 738.251 201.232C738.808 200.88 739.087 200.33 739.087 199.582C739.087 198.937 738.874 198.431 738.449 198.064C738.024 197.683 737.422 197.492 736.645 197.492C735.853 197.492 735.222 197.705 734.753 198.13C734.284 198.555 734.02 199.098 733.961 199.758H731.651C731.695 198.878 731.93 198.108 732.355 197.448C732.78 196.788 733.36 196.275 734.093 195.908C734.826 195.527 735.677 195.336 736.645 195.336C737.701 195.336 738.581 195.519 739.285 195.886C739.989 196.238 740.517 196.715 740.869 197.316C741.221 197.917 741.397 198.592 741.397 199.34C741.397 200.103 741.17 200.763 740.715 201.32C740.275 201.863 739.74 202.259 739.109 202.508V202.64C739.96 202.875 740.656 203.315 741.199 203.96C741.756 204.591 742.035 205.441 742.035 206.512C742.035 207.377 741.822 208.177 741.397 208.91C740.986 209.629 740.378 210.201 739.571 210.626C738.779 211.051 737.811 211.264 736.667 211.264Z" fill="#F9F8F6"/>
<defs>
<filter id="filter0_d" x="618" y="165" width="148" height="79" filterUnits="userSpaceOnUse" color-interpolation-filters="sRGB">
<feFlood flood-opacity="0" result="BackgroundImageFix"/>
<feColorMatrix in="SourceAlpha" type="matrix" values="0 0 0 0 0 0 0 0 0 0 0 0 0 0 0 0 0 0 127 0"/>
<feMorphology radius="10" operator="erode" in="SourceAlpha" result="effect1_dropShadow"/>
<feOffset dy="10"/>
<feGaussianBlur stdDeviation="10"/>
<feColorMatrix type="matrix" values="0 0 0 0 0.808796 0 0 0 0 0.808796 0 0 0 0 0.808796 0 0 0 1 0"/>
<feBlend mode="normal" in2="BackgroundImageFix" result="effect1_dropShadow"/>
<feBlend mode="normal" in="SourceGraphic" in2="effect1_dropShadow" result="shape"/>
</filter>
</defs>
</svg>
